<svg xmlns="http://www.w3.org/2000/svg" width="256" height="256" viewBox="0 0 256 256">
    <defs>
        <linearGradient id="g" x1="0" x2="1" y1="0" y2="1">
            <stop offset="0%" stop-color="#4c6ef5" />
            <stop offset="100%" stop-color="#845EF7" />
        </linearGradient>
        <filter id="s" x="-50%" y="-50%" width="200%" height="200%">
            <feDropShadow dx="0" dy="4" stdDeviation="6" flood-color="#000" flood-opacity="0.25" />
        </filter>
    </defs>
    <rect x="16" y="16" width="224" height="224" rx="48" fill="url(#g)" />
    <g filter="url(#s)">
        <path fill="#fff"
            d="M128 56c-39.764 0-72 32.236-72 72s32.236 72 72 72 72-32.236 72-72-32.236-72-72-72Zm0 24c26.51 0 48 21.49 48 48s-21.49 48-48 48-48-21.49-48-48 21.49-48 48-48Z" />
        <path fill="#fff"
            d="M96 128c0-17.673 14.327-32 32-32 6.627 0 12 5.373 12 12s-5.373 12-12 12c-4.418 0-8 3.582-8 8s3.582 8 8 8c17.673 0 32 14.327 32 32 0 6.627-5.373 12-12 12h-8c-24.301 0-44-19.699-44-44Z" />
    </g>
</svg>